<mxfile host="app.diagrams.net" modified="2023-08-31T07:44:52.649Z" agent="Mozilla/5.0 (Windows NT 10.0; Win64; x64) AppleWebKit/537.36 (KHTML, like Gecko) Chrome/116.0.0.0 Safari/537.36" version="21.7.1" etag="hk4L4TDHu5MY4DBPwzy-" type="github">
  <diagram name="Page-1" id="rs4M65bj2_6Qbfb5Rqje">
    <mxGraphModel>
      <root>
        <mxCell id="0" />
        <mxCell id="1" parent="0" />
      </root>
    </mxGraphModel>
  </diagram>
</mxfile>
